# xmcd
#
# Track frame offsets: 
#        150
#        11854
#        21877
#        34603
#        45541
#        56868
#        69771
#        80709
#        91357
#        102849
#        118440
#
# Disc length: 1715 seconds
#
# Revision: 0
# Processed by: cddbd v1.5.2PL0 Copyright (c) Steve Scherf et al.
# Submitted via: ExactAudioCopy v1.0b1
#
DISCID=9006b10b
DTITLE=Porter Wagoner - You Gotta Have A License
DYEAR=1970
DGENRE=Country
TTITLE0=When You're Hot, You're Hot
TTITLE1=The Way He Said Your Name
TTITLE2=Roses Out Of Season
TTITLE3=Southern Bound
TTITLE4=Fairchild
TTITLE5=My Special Prayer Request
TTITLE6=You Gotta Have A License
TTITLE7=Stranger's Story
TTITLE8=Forty Miles From Poplar Bluff
TTITLE9=Little Boy's Prayer
TTITLE10=Walk On Fool
EXTD=
EXTT0=
EXTT1=
EXTT2=
EXTT3=
EXTT4=
EXTT5=
EXTT6=
EXTT7=
EXTT8=
EXTT9=
EXTT10=
PLAYORDER=
